# xmcd
#
# Track frame offsets: 
#        150
#        10591
#        21390
#        30530
#        40863
#        53181
#        65525
#        76534
#        87660
#        103401
#        118972
#        132877
#        145853
#        156605
#        169140
#        180801
#        195491
#        206938
#        217541
#        227760
#        239852
#        251895
#        261301
#        273284
#        288957
#        301758
#        314890
#
# Disc length: 4462 seconds
#
# Revision: 0
# Processed by: cddbd v1.5.1PL0 Copyright (c) Steve Scherf et al.
# Submitted via: ExactAudioCopy v0.95a5
#
DISCID=8d116c1b
DTITLE=Dave Emery - Classic Country From Branson , MO
DYEAR=1900
DGENRE=Country
TTITLE0=Anytime
TTITLE1=Your Don't Know Me
TTITLE2=Welcome To My World
TTITLE3=He'll Have To Go
TTITLE4=Four Walls
TTITLE5=Make The World Go Away
TTITLE6=Singing The Blues
TTITLE7=I'll Hold You In My Heart
TTITLE8=Always On My Mind
TTITLE9=For The Good Times
TTITLE10=Then You Can Tell Me Goodbye
TTITLE11=Amarillo By Morning
TTITLE12=On The Road Again
TTITLE13=Rocky Top
TTITLE14=A White Sports Coat
TTITLE15=Don't Worry About Me
TTITLE16=Boquet Of Roses
TTITLE17=What's He Doing IN My World
TTITLE18=Tumbling Tubleweeds
TTITLE19=Ghost Riders In The Sky
TTITLE20=Cattle Call
TTITLE21=Sixteen Tons
TTITLE22=Love Me Tender
TTITLE23=One Day At A Time
TTITLE24=How Great Thou Art
TTITLE25=Peace In The Valley
TTITLE26=American Trilogy
EXTD=
EXTT0=
EXTT1=
EXTT2=
EXTT3=
EXTT4=
EXTT5=
EXTT6=
EXTT7=
EXTT8=
EXTT9=
EXTT10=
EXTT11=
EXTT12=
EXTT13=
EXTT14=
EXTT15=
EXTT16=
EXTT17=
EXTT18=
EXTT19=
EXTT20=
EXTT21=
EXTT22=
EXTT23=
EXTT24=
EXTT25=
EXTT26=
PLAYORDER=
